:version 1.10
:name ASF
:units
  mass 1
  length 1
  angle deg
:documentation
  ASF file generated by Kaydara
:root
  axis xyz
  order  tx ty tz rx ry rz
  position 0 0 0
  orientation 0 0 0
:bonedata
  begin
    id 1
    name RightUpLegDummy
    direction -0.718183 -0.695806 0.00816078
    length 4.904
    axis 0 0 0 xyz
  end
  begin
    id 2
    name RightUpLeg
    direction 3.53373e-006 -0.995788 0.0916898
    length 17.4976
    axis -3.49089 -0.000906625 0.000286804 xyz
    dof rx ry rz
  end
  begin
    id 3
    name RightLeg
    direction 0.00371092 -0.995096 -0.0988419
    length 16.5821
    axis 3.68512 0.0193738 -0.131023 xyz
    dof rx ry rz
  end
  begin
    id 4
    name RightFoot
    direction 0.00079151 -0.46099 0.887405
    length 3.77069
    axis 4.81691e-005 -0.120479 -0.188788 xyz
    dof rx ry rz
  end
  begin
    id 5
    name RightToes
    direction 0 0 0
    length 0
    axis 0 0 0 xyz
    dof rx ry rz
  end
  begin
    id 6
    name SpineDummy
    direction 8.3039e-015 1 4.57515e-016
    length 4.6813
    axis 0 0 0 xyz
  end
  begin
    id 7
    name Spine
    direction -3.15643e-008 0.999988 0.00495137
    length 10.1015
    axis -0.001389 0.000121418 2.40972e-006 xyz
    dof rx ry rz
  end
  begin
    id 8
    name Spine1
    direction 0 0 0
    length 0
    axis -0.001389 0.000121451 1.30017e-006 xyz
    dof rx ry rz
  end
  begin
    id 9
    name HEadDummy
    direction -1.99912e-008 0.999999 0.00127422
    length 3.43865
    axis -0.001389 0.000121451 1.30017e-006 xyz
  end
  begin
    id 10
    name HEad
    direction 0 0 0
    length 0
    axis 0 0 0 xyz
    dof rx ry rz
  end
  begin
    id 11
    name LeftShoulder1Dummy
    direction 0.998891 -0.0402509 -0.0244456
    length 3.5433
    axis -0.001389 0.000121451 1.30017e-006 xyz
  end
  begin
    id 12
    name LeftShoulder1
    direction 0.99951 -0.000327763 0.0313091
    length 4.05031
    axis -0.001389 0.000121451 1.30017e-006 xyz
    dof rx ry rz
  end
  begin
    id 13
    name LeftArm
    direction 0.998561 -0.00100056 -0.0536182
    length 10.3537
    axis -23.1894 0.134784 0.967509 xyz
    dof rx ry rz
  end
  begin
    id 14
    name LeftForeArm
    direction 0.998903 0.00866432 0.046012
    length 8.70632
    axis -9.91835 -0.06569 -0.177794 xyz
    dof rx ry rz
  end
  begin
    id 15
    name LeftHand
    direction 0 0 0
    length 0
    axis 0 0 0 xyz
    dof rx ry rz
  end
  begin
    id 16
    name RightShoulderDummy
    direction -0.998891 -0.0402509 -0.0244414
    length 3.5433
    axis -0.001389 0.000121451 1.30017e-006 xyz
  end
  begin
    id 17
    name RightShoulder
    direction -0.99951 -0.000327807 0.0313133
    length 4.05031
    axis 0.215806 0.000203643 -0.0068026 xyz
    dof rx ry rz
  end
  begin
    id 18
    name RightArm
    direction -0.998573 -0.000999564 -0.053403
    length 10.3947
    axis -23.2009 -0.134239 -0.964101 xyz
    dof rx ry rz
  end
  begin
    id 19
    name RightForeArm
    direction -0.998898 0.00868028 0.0461306
    length 8.68355
    axis -9.92322 0.0658061 0.178868 xyz
    dof rx ry rz
  end
  begin
    id 20
    name RightHand
    direction 0 0 0
    length 0
    axis 0 0 0 xyz
    dof rx ry rz
  end
  begin
    id 21
    name LeftUpLegDummy
    direction 0.718183 -0.695806 0.00816078
    length 4.904
    axis 0 0 0 xyz
  end
  begin
    id 22
    name LeftUpLeg
    direction -6.81752e-006 -0.995793 0.0916337
    length 17.4976
    axis -3.48766 0.00143442 -0.000524262 xyz
    dof rx ry rz
  end
  begin
    id 23
    name LeftLeg
    direction -0.00601358 -0.995091 -0.0987824
    length 16.5821
    axis 3.68178 -0.00654042 -0.000285133 xyz
    dof rx ry rz
  end
  begin
    id 24
    name LeftFoot
    direction -0.00417578 -0.460984 0.887399
    length 3.77069
    axis 1.87233e-006 4.66016e-005 -8.6538e-006 xyz
    dof rx ry rz
  end
  begin
    id 25
    name LeftToes
    direction 0 0 0
    length 0
    axis 0 0 0 xyz
    dof rx ry rz
  end
:hierarchy
  begin
    root RightUpLegDummy SpineDummy LeftUpLegDummy
    RightUpLegDummy RightUpLeg
    RightUpLeg RightLeg
    RightLeg RightFoot
    RightFoot RightToes
    SpineDummy Spine
    Spine Spine1
    Spine1 HEadDummy LeftShoulder1Dummy RightShoulderDummy
    HEadDummy HEad
    LeftShoulder1Dummy LeftShoulder1
    LeftShoulder1 LeftArm
    LeftArm LeftForeArm
    LeftForeArm LeftHand
    RightShoulderDummy RightShoulder
    RightShoulder RightArm
    RightArm RightForeArm
    RightForeArm RightHand
    LeftUpLegDummy LeftUpLeg
    LeftUpLeg LeftLeg
    LeftLeg LeftFoot
    LeftFoot LeftToes
  end

:SAMPLES-PER-SECOND 30
:FULLY-SPECIFIED
:DEGREES
1032
root  6.44395 33.7755 20.733 -132.927 89.3268 -142.849
RightUpLeg  -57.6696 -17.9754 -1.56703
RightLeg  64.633 -4.63226 -11.1712
RightFoot  -10.6566 -0.125655 7.49798
RightToes  0.000481921 0.542163 -0.142578
Spine  59.2027 -1.87595 5.89423
Spine1  -14.4204 0.852937 -0.622168
HEad  -39.5437 3.98082 -4.12748
LeftShoulder1  7.88665 -14.2779 -38.1922
LeftArm  1.32746 -19.2828 -41.1417
LeftForeArm  -177.14 -61.4473 -163.021
LeftHand  -0.25398 0.0180481 5.50724
RightShoulder  4.21124 10.1052 24.8167
RightArm  -3.28224 13.4246 45.51
RightForeArm  165.639 61.7018 161.217
RightHand  -1.54485 4.37972 -18.5515
LeftUpLeg  -53.9944 13.093 0.474167
LeftLeg  61.4598 5.38602 11.2203
LeftFoot  -15.3116 -0.132045 -6.44928
LeftToes  1.06245e-005 4.65868e-005 -8.65517e-006
1033
root  6.58764 33.6228 20.5367 -129.83 89.4865 -139.555
RightUpLeg  -57.469 -19.586 3.278
RightLeg  66.1685 -3.2152 -8.64529
RightFoot  -14.2604 0.0430046 5.91434
RightToes  0.000481921 0.542163 -0.142578
Spine  59.2397 -1.85854 5.68498
Spine1  -14.0207 0.59596 -0.161569
HEad  -39.1394 4.01521 -4.02911
LeftShoulder1  7.89557 -14.2493 -38.3089
LeftArm  1.11945 -19.069 -41.1524
LeftForeArm  -177.076 -61.3889 -163.067
LeftHand  -0.25398 0.0180481 5.50724
RightShoulder  4.20945 10.1058 24.8011
RightArm  -2.90227 13.6163 45.5912
RightForeArm  165.562 61.7672 161.161
RightHand  -1.52589 4.27273 -18.5221
LeftUpLeg  -54.0947 12.9644 0.151689
LeftLeg  62.5075 5.41572 11.7937
LeftFoot  -15.668 -0.136257 -6.08184
LeftToes  1.06245e-005 4.65868e-005 -8.65517e-006
1034
root  6.76694 33.3893 20.4307 -168.396 89.5145 -177.988
RightUpLeg  -56.3731 -19.6725 5.7644
RightLeg  66.3385 -2.83428 -7.76519
RightFoot  -17.4061 -0.0526826 1.25398
RightToes  0.000481921 0.542163 -0.142578
Spine  59.3149 -1.93398 5.4954
Spine1  -13.8575 0.247868 0.102475
HEad  -38.746 3.85244 -3.88065
LeftShoulder1  7.86843 -14.259 -38.139
LeftArm  1.34023 -18.8662 -41.5568
LeftForeArm  -176.776 -61.4143 -163.077
LeftHand  -0.25398 0.0180481 5.50724
RightShoulder  4.2856 10.1494 25.2814
RightArm  -2.79495 13.318 45.0884
RightForeArm  165.77 61.5946 161.309
RightHand  -1.45918 4.07006 -18.1013
LeftUpLeg  -54.5286 12.8025 -0.393077
LeftLeg  63.9922 5.36315 12.4719
LeftFoot  -15.8304 -0.12737 -5.6663
LeftToes  1.06245e-005 4.65868e-005 -8.65517e-006
1035
root  6.92265 33.1267 20.3332 152.645 89.0567 143.173
RightUpLeg  -55.648 -18.5488 5.44089
RightLeg  66.7033 -3.54362 -9.69841
RightFoot  -19.9427 -0.234094 -1.41859
RightToes  0.000481921 0.542163 -0.142578
Spine  59.3147 -2.34167 5.64598
Spine1  -13.7875 -0.134093 -0.160978
HEad  -38.5823 3.65194 -3.84264
LeftShoulder1  7.85505 -14.3235 -37.9125
LeftArm  1.78039 -19.0562 -42.1258
LeftForeArm  -176.488 -61.5091 -163.038
LeftHand  -0.25398 0.0180481 5.50724
RightShoulder  4.35508 10.1515 25.8077
RightArm  -2.88026 13.0086 44.5066
RightForeArm  165.669 61.4119 161.433
RightHand  -1.44131 4.04408 -17.9329
LeftUpLeg  -55.0981 12.6162 -1.20832
LeftLeg  65.5749 4.94208 12.4496
LeftFoot  -16.5807 -0.137012 -5.17504
LeftToes  1.06245e-005 4.65868e-005 -8.65517e-006
1036
root  7.02969 32.9107 20.186 154.062 88.4313 144.738
RightUpLeg  -55.8168 -17.6248 4.02447
RightLeg  67.9478 -4.30487 -12.3211
RightFoot  -20.5236 -0.189318 -0.607387
RightToes  0.000481921 0.542163 -0.142578
Spine  59.0946 -3.10532 6.33425
Spine1  -13.4828 -0.467311 -0.687904
HEad  -38.8285 3.56595 -4.12052
LeftShoulder1  7.93205 -14.4189 -38.0994
LeftArm  2.06661 -19.6965 -42.4043
LeftForeArm  -176.468 -61.65 -162.944
LeftHand  -0.25398 0.0180481 5.50724
RightShoulder  4.33511 10.0981 25.7847
RightArm  -2.98995 13.1843 44.3943
RightForeArm  164.864 61.6086 161.211
RightHand  -1.48338 4.08376 -18.3661
LeftUpLeg  -55.5435 12.7628 -2.11519
LeftLeg  66.7031 4.4381 11.9331
LeftFoot  -17.5102 -0.137713 -4.49175
LeftToes  1.06245e-005 4.65868e-005 -8.65517e-006
1037
root  7.10982 32.7875 20.0315 158.888 87.9695 149.694
RightUpLeg  -56.1867 -17.5562 3.12724
RightLeg  69.0864 -4.30102 -13.081
RightFoot  -19.6967 -0.0770604 0.763061
RightToes  0.000481921 0.542163 -0.142578
Spine  58.8903 -3.72569 7.09305
Spine1  -13.1528 -0.651344 -0.836756
HEad  -39.1322 3.59784 -4.46283
LeftShoulder1  8.0697 -14.4833 -38.6815
LeftArm  2.22889 -20.1806 -42.4521
LeftForeArm  -176.682 -61.8486 -162.787
LeftHand  -0.25398 0.0180481 5.50724
RightShoulder  4.2701 10.0579 25.3837
RightArm  -3.04778 13.5777 44.4404
RightForeArm  163.897 62.1117 160.739
RightHand  -1.4922 3.90644 -18.8056
LeftUpLeg  -56.1686 13.9369 -3.00843
LeftLeg  67.6226 3.89024 11.0995
LeftFoot  -16.9253 -0.0905794 -3.87174
LeftToes  1.06245e-005 4.65868e-005 -8.65517e-006
1038
root  7.1721 32.7333 19.9327 155.113 87.5732 146.055
RightUpLeg  -56.1404 -17.6618 2.51254
RightLeg  69.5524 -4.06178 -12.7559
RightFoot  -19.3952 -0.0605635 1.00453
RightToes  0.000481921 0.542163 -0.142578
Spine  59.0161 -3.78414 7.26201
Spine1  -13.363 -0.721158 -0.401629
HEad  -38.9159 3.61548 -4.35718
LeftShoulder1  8.1384 -14.4751 -39.066
LeftArm  2.63107 -20.0506 -42.7687
LeftForeArm  -176.798 -62.0176 -162.658
LeftHand  -0.25398 0.0180481 5.50724
RightShoulder  4.24485 10.0388 25.2351
RightArm  -3.08561 13.5753 44.1466
RightForeArm  163.507 62.3905 160.485
RightHand  -1.4456 3.64966 -18.7281
LeftUpLeg  -57.402 16.0975 -3.65908
LeftLeg  69.2569 2.33281 7.58408
LeftFoot  -14.117 -0.02463 -4.79318
LeftToes  1.06245e-005 4.65868e-005 -8.65517e-006
1039
root  7.22101 32.6588 19.8601 145.717 86.9784 136.896
RightUpLeg  -55.9238 -17.5934 1.38307
RightLeg  70.0556 -4.04198 -13.0749
RightFoot  -19.9369 -0.0517811 1.10155
RightToes  0.000481921 0.542163 -0.142578
Spine  59.3695 -3.54859 6.94097
Spine1  -14.0035 -0.845378 0.229098
HEad  -38.1842 3.46375 -3.78631
LeftShoulder1  8.0835 -14.4191 -38.9084
LeftArm  3.30848 -19.6623 -43.4325
LeftForeArm  -176.578 -61.988 -162.699
LeftHand  -0.25398 0.0180481 5.50724
RightShoulder  4.24592 9.96789 25.4163
RightArm  -3.10291 13.1761 43.7705
RightForeArm  163.544 62.1858 160.647
RightHand  -1.43101 3.67677 -18.4934
LeftUpLeg  -58.9035 17.9886 -3.17814
LeftLeg  71.9039 -0.514805 -0.925861
LeftFoot  -10.1674 0.168803 -9.07027
LeftToes  1.06245e-005 4.65868e-005 -8.65517e-006
1040
root  7.27414 32.5154 19.712 141.312 86.3193 132.89
RightUpLeg  -55.8398 -17.6378 -0.0100494
RightLeg  71.0795 -3.97837 -13.6885
RightFoot  -20.2875 0.00681301 1.84725
RightToes  0.000481921 0.542163 -0.142578
Spine  59.575 -3.49964 6.83879
Spine1  -14.4257 -1.05578 0.751186
HEad  -37.5164 3.12782 -3.28262
LeftShoulder1  8.00633 -14.3846 -38.5796
LeftArm  3.86645 -19.544 -43.9173
LeftForeArm  -176.219 -61.7611 -162.889
LeftHand  -0.25398 0.0180481 5.50724
RightShoulder  4.20668 9.83421 25.4387
RightArm  -3.04836 12.8516 43.809
RightForeArm  163.263 61.8229 160.897
RightHand  -1.47152 3.8677 -18.6267
LeftUpLeg  -59.692 18.4639 -0.643602
LeftLeg  74.4523 -2.91641 -10.729
LeftFoot  -7.36455 0.560507 -15.2119
LeftToes  1.06245e-005 4.65868e-005 -8.65517e-006
1041
root  7.32281 32.4041 19.4833 140.515 85.786 132.54
RightUpLeg  -55.6334 -17.7304 -1.25245
RightLeg  71.9144 -3.79351 -13.8138
RightFoot  -20.066 0.0592162 2.55767
RightToes  0.000481921 0.542163 -0.142578
Spine  59.6629 -3.55779 6.78983
Spine1  -14.4132 -1.15337 1.07131
HEad  -37.2529 2.78463 -3.17514
LeftShoulder1  8.0071 -14.4013 -38.5437
LeftArm  4.08315 -19.5659 -43.9081
LeftForeArm  -176.067 -61.5389 -163.056
LeftHand  -0.25398 0.0180481 5.50724
RightShoulder  4.12908 9.71332 25.1273
RightArm  -2.92051 12.7196 44.0866
RightForeArm  162.752 61.6658 160.966
RightHand  -1.48649 3.81536 -18.9121
LeftUpLeg  -59.2617 17.5801 3.31504
LeftLeg  75.3413 -3.35726 -13.4048
LeftFoot  -7.92681 0.587487 -17.9899
LeftToes  1.06245e-005 4.65868e-005 -8.65517e-006
1042
root  7.3477 32.3748 19.2447 138.935 85.3207 131.279
RightUpLeg  -55.2337 -17.4373 -2.45985
RightLeg  72.1697 -3.80632 -14.0785
RightFoot  -19.7984 0.0837995 2.9456
RightToes  0.000481921 0.542163 -0.142578
Spine  59.9625 -3.36039 6.19222
Spine1  -14.3987 -1.04189 1.19209
HEad  -37.2365 2.64043 -3.23773
LeftShoulder1  8.03653 -14.4101 -38.6798
LeftArm  4.15685 -19.3106 -43.7434
LeftForeArm  -176.07 -61.4302 -163.13
LeftHand  -0.25398 0.0180481 5.50724
RightShoulder  4.07234 9.64853 24.8371
RightArm  -2.78041 12.5509 44.1118
RightForeArm  162.888 61.668 160.977
RightHand  -1.46426 3.66743 -18.9269
LeftUpLeg  -58.1433 16.1174 7.27486
LeftLeg  74.3873 -1.60651 -5.59691
LeftFoot  -10.7555 0.153227 -14.5499
LeftToes  1.06245e-005 4.65868e-005 -8.65517e-006
1043
root  7.35828 32.3003 18.9496 138.567 85.1413 131.128
RightUpLeg  -55.0153 -16.9263 -3.54381
RightLeg  72.4829 -3.91472 -14.7259
RightFoot  -19.6846 0.131095 3.62618
RightToes  0.000481921 0.542163 -0.142578
Spine  60.3435 -3.03235 5.52274
Spine1  -14.729 -0.884152 1.30207
HEad  -37.3523 2.70796 -3.14846
LeftShoulder1  8.00732 -14.3573 -38.6504
LeftArm  4.2727 -18.8671 -43.7901
LeftForeArm  -175.919 -61.3418 -163.203
LeftHand  -0.25398 0.0180481 5.50724
RightShoulder  4.05658 9.61434 24.7957
RightArm  -2.63894 12.354 43.9049
RightForeArm  163.709 61.6347 161.081
RightHand  -1.48307 3.86985 -18.7649
LeftUpLeg  -56.9362 14.6483 10.5423
LeftLeg  72.0735 1.70931 6.79448
LeftFoot  -12.8547 -0.0243168 -7.17172
LeftToes  1.06245e-005 4.65868e-005 -8.65517e-006
